<svg width="40" height="40" viewBox="0 0 40 40" fill="none" xmlns="http://www.w3.org/2000/svg">
<g clip-path="url(#clip0_8104_23279)">
<path d="M39.0728 1L21.9092 13.7855L25.1009 6.25063L39.0728 1Z" fill="#E17726"/>
<path d="M0.967344 1.01514L14.9019 6.25161L17.9325 13.8852L0.967344 1.01514ZM32.1656 28.1912L39.7517 28.3365L37.1005 37.4038L27.8437 34.838L32.1656 28.1912ZM7.83422 28.1912L12.14 34.838L2.89891 37.404L0.26375 28.3365L7.83422 28.1912Z" fill="#E27625"/>
<path d="M17.5205 11.9406L17.8305 22.0211L8.55375 21.5962L11.1925 17.5884L11.2259 17.5499L17.5205 11.9406ZM22.3834 11.8281L28.7741 17.5502L28.8072 17.5886L31.4459 21.5963L22.1712 22.0211L22.3834 11.8281ZM12.4117 28.2202L17.477 32.1936L11.593 35.0535L12.4117 28.2202ZM27.5892 28.2196L28.3909 35.0536L22.5233 32.1932L27.5892 28.2196Z" fill="#E27625"/>
<path d="M22.6528 31.8193L28.607 34.7219L23.0684 37.3718L23.1259 35.6204L22.6528 31.8193ZM17.3455 31.8206L16.8909 35.5918L16.9283 37.3698L11.3767 34.7219L17.3455 31.8206Z" fill="#D5BFB2"/>
<path d="M15.6261 23.3369L17.182 26.629L11.8847 25.0666L15.6261 23.3369ZM24.3738 23.3372L28.1328 25.0666L22.8181 26.6285L24.3738 23.3372Z" fill="#233447"/>
<path d="M12.8166 28.1868L11.9603 35.2718L7.37078 28.3418L12.8166 28.1868ZM27.1837 28.187L32.6297 28.3418L28.023 35.2721L27.1837 28.187ZM31.58 21.1958L27.6167 25.2623L24.5609 23.8564L23.098 26.9528L22.1389 21.6282L31.58 21.1958ZM8.41797 21.1958L17.8609 21.6282L16.9017 26.9528L15.4384 23.8569L12.3989 25.2624L8.41797 21.1958Z" fill="#CC6228"/>
<path d="M8.15094 20.3612L12.635 24.942L12.7903 29.4644L8.15094 20.3612ZM31.8536 20.353L27.2058 29.4724L27.3808 24.942L31.8536 20.353ZM17.6417 20.6403L17.8222 21.7839L18.2681 24.6328L17.9814 33.3828L16.6259 26.3537L16.6255 26.281L17.6417 20.6403ZM22.3559 20.6244L23.3748 26.281L23.3744 26.3537L22.0155 33.4004L21.9617 31.6378L21.7497 24.5809L22.3559 20.6244Z" fill="#E27525"/>
<path d="M27.7794 24.7603L27.6277 28.6894L22.8973 32.3997L21.9411 31.7195L23.013 26.1612L27.7794 24.7603ZM12.237 24.7603L16.9869 26.1612L18.0587 31.7195L17.1025 32.3997L12.372 28.6891L12.237 24.7603Z" fill="#F5841F"/>
<path d="M10.4716 33.854L16.5234 36.7408L16.4978 35.508L17.0042 35.0605H22.9939L23.5186 35.5065L23.4798 36.7383L29.4934 33.8612L26.5672 36.2957L23.0289 38.7422H16.9556L13.4197 36.2856L10.4716 33.854Z" fill="#C0AC9D"/>
<path d="M22.2194 31.4351L23.075 32.0437L23.5764 36.0713L22.8508 35.4545H17.1514L16.4395 36.0837L16.9245 32.044L17.7805 31.4351H22.2194Z" fill="#161616"/>
<path d="M37.9397 1.354L40 7.57645L38.7133 13.8681L39.6295 14.5796L38.3897 15.5319L39.3216 16.2565L38.0877 17.3876L38.8452 17.9399L36.8348 20.3036L28.5895 17.8866L28.5181 17.848L22.5764 12.8021L37.9397 1.354ZM2.06031 1.354L17.4238 12.8021L11.4819 17.848L11.4105 17.8866L3.16516 20.3036L1.15484 17.9399L1.91172 17.3881L0.678594 16.2565L1.60859 15.5327L0.350156 14.5777L1.30094 13.8658L0 7.57677L2.06031 1.354Z" fill="#763E1A"/>
<path d="M28.1863 17.3578L36.9227 19.9186L39.7609 28.7254H32.2728L27.1134 28.7908L30.8656 21.4278L28.1863 17.3578ZM11.8138 17.3578L9.13391 21.4278L12.8866 28.7908L7.72953 28.7254H0.254845L3.07719 19.9187L11.8138 17.3578ZM25.5288 6.2085L23.0852 12.8528L22.5666 21.8286L22.3681 24.6419L22.3523 31.8288H17.6475L17.6322 24.6555L17.4331 21.8262L16.9144 12.8528L14.4711 6.2085H25.5288Z" fill="#F5841F"/>
</g>
<defs>
<clipPath id="clip0_8104_23279">
<rect width="40" height="37.7528" fill="white" transform="translate(0 1)"/>
</clipPath>
</defs>
</svg>
